<mxfile host="app.diagrams.net" agent="Mozilla/5.0 (Macintosh; Intel Mac OS X 10_15_7) AppleWebKit/537.36 (KHTML, like Gecko) Chrome/131.0.0.0 Safari/537.36" version="24.7.12">
  <diagram name="Page-1" id="NxEq4jZRarjwGbyDqUbL">
    <mxGraphModel dx="954" dy="581" grid="1" gridSize="10" guides="1" tooltips="1" connect="1" arrows="1" fold="1" page="1" pageScale="1" pageWidth="850" pageHeight="1100" math="0" shadow="0">
      <root>
        <mxCell id="0" />
        <mxCell id="1" parent="0" />
        <mxCell id="2hmiu5hpE5PSN8wwXM_j-1" value="" style="shape=image;html=1;verticalAlign=top;verticalLabelPosition=bottom;labelBackgroundColor=#ffffff;imageAspect=0;aspect=fixed;image=https://cdn0.iconfinder.com/data/icons/internet-connection-1/100/signal_tower-128.png" vertex="1" parent="1">
          <mxGeometry x="210" y="220" width="78" height="78" as="geometry" />
        </mxCell>
        <mxCell id="2hmiu5hpE5PSN8wwXM_j-3" value="" style="edgeStyle=orthogonalEdgeStyle;rounded=0;orthogonalLoop=1;jettySize=auto;html=1;" edge="1" parent="1" source="2hmiu5hpE5PSN8wwXM_j-2" target="2hmiu5hpE5PSN8wwXM_j-1">
          <mxGeometry relative="1" as="geometry" />
        </mxCell>
        <mxCell id="2hmiu5hpE5PSN8wwXM_j-2" value="" style="sketch=0;pointerEvents=1;shadow=0;dashed=0;html=1;strokeColor=none;labelPosition=center;verticalLabelPosition=bottom;verticalAlign=top;align=center;fillColor=#505050;shape=mxgraph.mscae.intune.device_group" vertex="1" parent="1">
          <mxGeometry x="60" y="234" width="50" height="50" as="geometry" />
        </mxCell>
        <mxCell id="2hmiu5hpE5PSN8wwXM_j-4" value="Mobile access network" style="ellipse;shape=cloud;whiteSpace=wrap;html=1;" vertex="1" parent="1">
          <mxGeometry x="305" y="160" width="235" height="201" as="geometry" />
        </mxCell>
        <mxCell id="2hmiu5hpE5PSN8wwXM_j-5" value="Private APN" style="ellipse;shape=cloud;whiteSpace=wrap;html=1;" vertex="1" parent="1">
          <mxGeometry x="350" y="180" width="120" height="80" as="geometry" />
        </mxCell>
        <mxCell id="2hmiu5hpE5PSN8wwXM_j-7" value="" style="endArrow=classic;html=1;rounded=0;exitX=1;exitY=0.5;exitDx=0;exitDy=0;entryX=0.16;entryY=0.55;entryDx=0;entryDy=0;entryPerimeter=0;" edge="1" parent="1" source="2hmiu5hpE5PSN8wwXM_j-1" target="2hmiu5hpE5PSN8wwXM_j-5">
          <mxGeometry width="50" height="50" relative="1" as="geometry">
            <mxPoint x="400" y="350" as="sourcePoint" />
            <mxPoint x="450" y="300" as="targetPoint" />
          </mxGeometry>
        </mxCell>
        <mxCell id="2hmiu5hpE5PSN8wwXM_j-8" value="MLPS Network" style="ellipse;shape=cloud;whiteSpace=wrap;html=1;" vertex="1" parent="1">
          <mxGeometry x="580" y="150" width="235" height="201" as="geometry" />
        </mxCell>
        <mxCell id="2hmiu5hpE5PSN8wwXM_j-9" value="Internet" style="ellipse;shape=cloud;whiteSpace=wrap;html=1;" vertex="1" parent="1">
          <mxGeometry x="910" y="202" width="150" height="120" as="geometry" />
        </mxCell>
        <mxCell id="2hmiu5hpE5PSN8wwXM_j-11" value="Server Farm" style="ellipse;shape=cloud;whiteSpace=wrap;html=1;" vertex="1" parent="1">
          <mxGeometry x="770" y="20" width="150" height="120" as="geometry" />
        </mxCell>
        <mxCell id="2hmiu5hpE5PSN8wwXM_j-13" value="" style="endArrow=classic;html=1;rounded=0;exitX=0.96;exitY=0.7;exitDx=0;exitDy=0;entryX=0.4;entryY=0.1;entryDx=0;entryDy=0;entryPerimeter=0;exitPerimeter=0;" edge="1" parent="1" source="2hmiu5hpE5PSN8wwXM_j-11" target="2hmiu5hpE5PSN8wwXM_j-9">
          <mxGeometry width="50" height="50" relative="1" as="geometry">
            <mxPoint x="465" y="230" as="sourcePoint" />
            <mxPoint x="754" y="76" as="targetPoint" />
          </mxGeometry>
        </mxCell>
        <mxCell id="2hmiu5hpE5PSN8wwXM_j-14" value="" style="endArrow=classic;html=1;rounded=0;exitX=0.875;exitY=0.5;exitDx=0;exitDy=0;entryX=0.16;entryY=0.55;entryDx=0;entryDy=0;entryPerimeter=0;exitPerimeter=0;" edge="1" parent="1" source="2hmiu5hpE5PSN8wwXM_j-4" target="2hmiu5hpE5PSN8wwXM_j-8">
          <mxGeometry width="50" height="50" relative="1" as="geometry">
            <mxPoint x="475" y="240" as="sourcePoint" />
            <mxPoint x="764" y="86" as="targetPoint" />
          </mxGeometry>
        </mxCell>
        <mxCell id="2hmiu5hpE5PSN8wwXM_j-17" value="" style="endArrow=classic;html=1;rounded=0;exitX=0.625;exitY=0.2;exitDx=0;exitDy=0;entryX=0.31;entryY=0.8;entryDx=0;entryDy=0;entryPerimeter=0;exitPerimeter=0;" edge="1" parent="1" source="2hmiu5hpE5PSN8wwXM_j-8" target="2hmiu5hpE5PSN8wwXM_j-11">
          <mxGeometry width="50" height="50" relative="1" as="geometry">
            <mxPoint x="455" y="220" as="sourcePoint" />
            <mxPoint x="744" y="66" as="targetPoint" />
          </mxGeometry>
        </mxCell>
        <mxCell id="2hmiu5hpE5PSN8wwXM_j-18" style="edgeStyle=orthogonalEdgeStyle;rounded=0;orthogonalLoop=1;jettySize=auto;html=1;exitX=0.875;exitY=0.5;exitDx=0;exitDy=0;exitPerimeter=0;entryX=0.07;entryY=0.4;entryDx=0;entryDy=0;entryPerimeter=0;" edge="1" parent="1" source="2hmiu5hpE5PSN8wwXM_j-8" target="2hmiu5hpE5PSN8wwXM_j-9">
          <mxGeometry relative="1" as="geometry" />
        </mxCell>
      </root>
    </mxGraphModel>
  </diagram>
</mxfile>
